<?xml version="1.0" encoding="UTF-8"?>
<svg width="375px" height="40px" viewBox="0 0 375 40" version="1.1" xmlns="http://www.w3.org/2000/svg" xmlns:xlink="http://www.w3.org/1999/xlink">
    <!-- Generator: Sketch 48.2 (47327) - http://www.bohemiancoding.com/sketch -->
    <title>Shape</title>
    <desc>Created with Sketch.</desc>
    <defs></defs>
    <g id="iPhone-8" stroke="none" stroke-width="1" fill="none" fill-rule="evenodd" transform="translate(0.000000, -259.000000)">
        <path d="M203.498796,284.078834 L375,284.078834 L375,289.296364 L203.498796,289.296364 C201.585745,289.296364 199.950723,288.287548 198.872399,287.000701 C197.759641,285.678783 197.063928,284.044399 196.820333,282.200854 C196.61181,281.017951 196.2292,280.287803 195.916097,279.940265 C195.568559,279.592727 195.394471,279.592727 195.255456,279.557655 L194.698758,279.870757 C194.420728,280.18386 194.003045,280.810066 193.794522,281.922824 L191.707383,292.461189 C191.324772,294.339168 190.594624,295.939755 189.446793,297.122021 C188.298962,298.304287 186.733448,299 185.133499,299 C183.42897,299 181.794586,298.199707 180.646755,296.947933 C179.463851,295.661087 178.733703,293.956558 178.4206,291.938926 L174.733512,266.86073 C174.559424,265.643391 174.142379,264.947678 173.829276,264.60014 C173.481738,264.252603 173.307651,264.21753 173.20307,264.21753 C173.064055,264.21753 172.889968,264.252603 172.576865,264.60014 C172.263762,264.947678 171.846717,265.643391 171.672629,266.86073 L169.412039,282.200217 C169.134009,284.043761 168.438296,285.678783 167.359973,287.000064 C166.247214,288.28691 164.612193,289.295726 162.699141,289.295726 L0,289.295726 L0,284.078834 L162.698503,284.078834 C162.768011,284.078834 162.976533,284.043761 163.359144,283.626716 C163.706681,283.209033 164.089292,282.443812 164.228944,281.435634 L166.524607,266.096147 C166.802637,264.078515 167.567858,262.339551 168.715689,261.08714 C169.86352,259.800293 171.498541,259 173.202433,259 C174.906962,259 176.541346,259.800293 177.689177,261.08714 C178.837008,262.339551 179.602229,264.078515 179.880259,266.096147 L183.601782,291.174343 C183.77587,292.357246 184.15848,293.087395 184.506018,293.434932 C184.819121,293.78247 185.027644,293.78247 185.132224,293.78247 L185.688922,293.469367 C186.002025,293.191337 186.384635,292.530059 186.593158,291.451735 L188.681573,280.913371 C189.064183,279.035391 189.829404,277.434805 190.977235,276.252539 C192.089993,275.069635 193.655507,274.339487 195.255456,274.339487 C196.959985,274.339487 198.594369,275.13978 199.7422,276.426626 C200.925104,277.713473 201.655252,279.418002 201.968355,281.435634 C202.10737,282.44445 202.48998,283.20967 202.838156,283.626716 C203.220766,284.043761 203.429289,284.078834 203.498796,284.078834 Z" id="Shape" fill="#FFFFFF" fill-rule="nonzero"></path>
    </g>
</svg>