<?xml version="1.0" encoding="UTF-8"?>
<svg width="375px" height="129px" viewBox="0 0 375 129" version="1.1" xmlns="http://www.w3.org/2000/svg" xmlns:xlink="http://www.w3.org/1999/xlink">
    <!-- Generator: Sketch 48.2 (47327) - http://www.bohemiancoding.com/sketch -->
    <title>Group 3</title>
    <desc>Created with Sketch.</desc>
    <defs></defs>
    <g id="iPhone-8-Copy" stroke="none" stroke-width="1" fill="none" fill-rule="evenodd" transform="translate(0.000000, -312.000000)">
        <g id="Group-3" transform="translate(-6.000000, 314.000000)">
            <path d="M0.5,85.5 L125.565678,85.5" id="Line" stroke="#333333" stroke-width="3" opacity="0.100000001" stroke-linecap="square"></path>
            <path d="M256,86 L381.065678,86" id="Line-Copy" stroke="#333333" stroke-width="3" opacity="0.100000001" stroke-linecap="square"></path>
            <g id="Group-2" transform="translate(143.000000, 0.000000)">
                <g id="Group" transform="translate(0.000000, 54.000000)" fill="#333333" fill-rule="nonzero">
                    <path d="M102,54.3465728 L102,13.2706748 C100.40625,2.84371602 69.4875,0 51,0 C32.5125,0 1.59375,2.84371602 0,13.2706748 L0,13.9026116 C0,13.9026116 0,13.9026116 0,13.9026116 L0,52.7667306 L0,54.0306044 C0,66.3533738 25.5,72.9887111 51,72.9887111 C76.5,73.3046796 102,66.9853107 102,54.3465728 Z M4.2994186,12.7575034 C5.63372093,9.72731418 22.6460756,4.34031116 51,4.34031116 C79.3539244,4.34031116 96.6998547,9.72731418 97.7005814,12.7575034 L97.7005814,15.1143172 C92.6969477,18.8178818 75.3510174,22.858134 51,22.858134 C26.6489826,22.858134 9.63662791,18.8178818 4.2994186,15.1143172 L4.2994186,12.7575034 Z M4.2994186,18.8178818 C12.9723837,23.5315094 31.9861919,26.2250109 51,26.2250109 C70.0138081,26.2250109 89.0276163,23.8681971 97.7005814,18.8178818 L97.7005814,20.8380079 C92.6969477,24.5415725 75.3510174,28.5818248 51,28.5818248 C26.6489826,28.5818248 9.63662791,24.5415725 4.2994186,20.8380079 L4.2994186,18.8178818 Z M4.2994186,24.5415725 C12.9723837,29.2552001 31.9861919,31.9487016 51,31.9487016 C70.0138081,31.9487016 89.0276163,29.5918878 97.7005814,24.5415725 L97.7005814,35.6522662 C92.6969477,39.3558308 75.684593,43.3960831 51,43.3960831 C26.6489826,43.3960831 9.63662791,39.3558308 4.2994186,35.6522662 L4.2994186,24.5415725 Z M97.7005814,55.5168399 C97.7005814,60.9038429 79.3539244,68.9843474 51,68.9843474 C22.6460756,68.9843474 4.2994186,60.9038429 4.2994186,55.5168399 L4.2994186,39.3558308 C12.9723837,44.0694584 31.9861919,46.76296 51,46.76296 C70.0138081,46.76296 89.0276163,44.4061461 97.7005814,39.3558308 L97.7005814,54.1700891 L97.7005814,55.5168399 Z" id="Shape"></path>
                    <ellipse id="Oval" cx="22.6173913" cy="12.4634146" rx="7.53913043" ry="1.7804878"></ellipse>
                    <ellipse id="Oval" cx="78.4956522" cy="12.4634146" rx="7.53913043" ry="1.7804878"></ellipse>
                </g>
                <path d="M87,32 C76.537648,28.8227338 64.3398919,27 51.3156667,27 C38.8553576,27 27.1514989,28.6683113 17,31.594953" id="Oval-3" stroke="#5852FE" stroke-width="3"></path>
                <path d="M92,19 C80.3419507,15.1872806 66.7501652,13 52.2374571,13 C38.3531128,13 25.3116702,15.0019735 14,18.5139436" id="Oval-3-Copy" stroke="#5852FE" stroke-width="3"></path>
                <path d="M96,7 C83.1462533,2.55182732 68.1604386,0 52.1592476,0 C36.8508679,0 22.4718415,2.33563576 10,6.43293424" id="Oval-3-Copy-2" stroke="#5852FE" stroke-width="3"></path>
            </g>
        </g>
    </g>
</svg>