<?xml version="1.0" encoding="UTF-8"?>
<svg width="206px" height="96px" viewBox="0 0 206 96" version="1.1" xmlns="http://www.w3.org/2000/svg" xmlns:xlink="http://www.w3.org/1999/xlink">
    <!-- Generator: Sketch 48.2 (47327) - http://www.bohemiancoding.com/sketch -->
    <title>Group 3</title>
    <desc>Created with Sketch.</desc>
    <defs>
        <linearGradient x1="100%" y1="50%" x2="1.2894611%" y2="50%" id="linearGradient-1">
            <stop stop-color="#5852FE" offset="0%"></stop>
            <stop stop-color="#FFFFFF" offset="100%"></stop>
        </linearGradient>
    </defs>
    <g id="iPhone-8-Copy-2" stroke="none" stroke-width="1" fill="none" fill-rule="evenodd" transform="translate(-85.000000, -335.000000)">
        <g id="Group-3" transform="translate(85.000000, 335.000000)">
            <g id="Group" fill="#333333" fill-rule="nonzero">
                <path d="M14.7077629,34.023613 C13.2662943,33.8301495 11.9434109,34.84714 11.7536746,36.2798154 C11.2556169,40.0967975 11,44.0418837 11,48.0026562 C11,51.9712718 11.2529817,55.9111293 11.7510394,59.7228826 C11.9223291,61.0405257 13.0581115,62 14.3599131,62 C14.4732278,62 14.5865425,61.9921569 14.7024925,61.9764707 C16.1439611,61.7934647 17.1637935,60.4810503 16.9766925,59.0483748 C16.5076223,55.4614574 16.2678167,51.7438215 16.2678167,48.0000418 C16.2678167,44.2614909 16.504987,40.543855 16.9766925,36.9490945 C17.169064,35.5216477 16.1492315,34.2092334 14.7077629,34.023613 Z" id="Shape"></path>
                <path d="M47.1067653,0 L24.8958034,0 C10.9346274,0 0,21.0834515 0,48 C0,74.9139304 10.9346274,96 24.8958034,96 L47.1067653,96 C61.0679414,96 71.9999995,74.9139304 71.9999995,48 C72.0025688,21.0834515 61.0679414,0 47.1067653,0 Z M66.8641161,48 C66.8641161,52.7963347 63.0359688,56.6972837 58.3291461,56.6972837 C53.6223234,56.6972837 49.7941761,52.7963347 49.7941761,48 C49.7941761,32.0925057 45.9403366,17.6694666 39.4067939,8.7627359 C41.7884668,6.50332715 44.3936623,5.23617323 47.1093346,5.23617323 C57.8153008,5.23617323 66.8641161,24.8194611 66.8641161,48 Z M27.3519838,48 C27.3519838,33.6659758 30.8178702,20.7221556 35.9897229,12.9176394 C41.3799598,20.9604014 44.6557234,34.0010909 44.6557234,48 C44.6557234,61.9989091 41.382529,75.0395986 35.9922921,83.0823606 C30.815301,75.2804625 27.3519838,62.3340242 27.3519838,48 Z M5.14102195,48 C5.14102195,40.8028799 6.01455891,33.9539653 7.54067937,27.929748 L24.4410504,27.929748 C23.0228374,34.0141813 22.2161003,40.7845533 22.2161003,48 C22.2161003,55.2154467 23.0228374,61.9884368 24.4436196,68.070252 L7.5432486,68.070252 C6.01455891,62.0434166 5.14102195,55.1971201 5.14102195,48 Z M24.8983727,5.23617323 L35.6685696,5.23617323 C35.2163857,5.67601178 34.7796173,6.15250355 34.345418,6.64470383 C34.3377103,6.64994 34.3300026,6.65255809 34.322295,6.65779426 C34.2863258,6.6892113 34.2734797,6.73371877 34.2400797,6.7677539 C30.815301,10.6896476 27.9531828,16.1457402 25.8772479,22.6935748 L9.12332281,22.6935748 C12.7613473,12.1976655 18.5266913,5.23617323 24.8983727,5.23617323 Z M24.8983727,90.7638268 C18.5266913,90.7638268 12.7613473,83.8023345 9.12075358,73.3064252 L25.8746787,73.3064252 C27.9429059,79.8411694 30.7973164,85.2815534 34.2118182,89.2034471 C34.2554951,89.2453365 34.2709104,89.3029344 34.3197257,89.3448238 C34.3300026,89.3526781 34.3428488,89.3552962 34.3531257,89.3657685 C34.7847557,89.8553507 35.218955,90.3239882 35.6685696,90.7638268 L24.8983727,90.7638268 Z M47.1067653,90.7638268 C44.3910931,90.7638268 41.7858975,89.4966728 39.4042247,87.2372641 C44.4887237,80.3071888 47.9391947,70.033817 49.2238079,58.3204974 C51.6465883,60.543253 54.8195829,61.933457 58.3265769,61.933457 C61.2118181,61.933457 63.8838135,61.0066543 66.0907789,59.4462747 C63.7116753,77.2728264 55.9911501,90.7638268 47.1067653,90.7638268 Z" id="Shape"></path>
            </g>
            <g id="Group-2" transform="translate(155.000000, 18.000000)">
                <rect id="Rectangle-4" fill="#5852FE" x="0" y="0" width="51" height="61" rx="8"></rect>
                <polyline id="Shape" stroke="#FFFFFF" stroke-width="4.20000029" stroke-linecap="round" stroke-linejoin="round" points="14 20.7796448 24 30.5582403 34 20.7791201 24 11 24 50 34 40.2208799 24 30.4417597 14 40.2203552"></polyline>
            </g>
            <polygon id="Line" fill="url(#linearGradient-1)" fill-rule="nonzero" points="79 50 79 47 146.195015 47 146.195015 50"></polygon>
        </g>
    </g>
</svg>