<?xml version="1.0" encoding="UTF-8"?>
<svg width="48px" height="48px" viewBox="0 0 48 48" version="1.1" xmlns="http://www.w3.org/2000/svg" xmlns:xlink="http://www.w3.org/1999/xlink">
    <!-- Generator: Sketch 48.2 (47327) - http://www.bohemiancoding.com/sketch -->
    <title>icon-bad-heartrate</title>
    <desc>Created with Sketch.</desc>
    <defs>
        <circle id="path-1" cx="24" cy="24" r="24"></circle>
    </defs>
    <g id="iPhone-8-Copy-8" stroke="none" stroke-width="1" fill="none" fill-rule="evenodd" transform="translate(-19.000000, -129.000000)">
        <g id="icon-bad-heartrate" transform="translate(19.000000, 129.000000)">
            <mask id="mask-2" fill="white">
                <use xlink:href="#path-1"></use>
            </mask>
            <use id="Oval" fill-opacity="0.200000018" fill="#CCCCCC" xlink:href="#path-1"></use>
            <path d="M23.3995185,26.0315335 L28,26.0315335 L28,28.1185454 L23.3995185,28.1185454 C22.6342978,28.1185454 21.9802892,27.7150191 21.5489598,27.2002806 C21.1038564,26.6715131 20.8255711,26.0177595 20.728133,25.2803418 C20.644724,24.8071803 20.4916798,24.5151211 20.3664387,24.376106 C20.2274236,24.2370909 20.1577885,24.2370909 20.1021825,24.2230618 L19.8795032,24.348303 C19.7682912,24.4735441 19.601218,24.7240263 19.5178089,25.1691297 L18.6829531,30.3844756 C18.529909,31.1356673 18.2378497,31.7759019 17.7787173,32.2488083 C17.3195849,32.7217147 16.6933792,33 16.0533997,33 C15.371588,33 14.7178344,32.6798827 14.258702,32.1791732 C13.7855405,31.6644348 13.4934813,30.9826231 13.3682402,30.1755703 L11.8934048,17.1442919 C11.8237697,16.6573565 11.6569516,16.3790712 11.5317104,16.2400561 C11.3926953,16.101041 11.3230602,16.087012 11.2812282,16.087012 C11.2256221,16.087012 11.1559871,16.101041 11.0307459,16.2400561 C10.9055048,16.3790712 10.7386867,16.6573565 10.6690516,17.1442919 L9.76481579,25.2800867 C9.65360371,26.0175044 9.37531844,26.6715131 8.94398903,27.2000255 C8.49888565,27.714764 7.84487701,28.1182904 7.07965629,28.1182904 L-58,28.1182904 L-58,26.0315335 L7.07940121,26.0315335 C7.10720423,26.0315335 7.19061329,26.0175044 7.34365744,25.8506863 C7.48267253,25.6836131 7.63571668,25.3775248 7.69157779,24.9742535 L8.60984265,16.8384587 C8.72105473,16.0314059 9.02714302,15.3358203 9.48627545,14.8348558 C9.94540788,14.3201173 10.5994165,14 11.2809731,14 C11.9627848,14 12.6165383,14.3201173 13.0756708,14.8348558 C13.5348032,15.3358203 13.8408915,16.0314059 13.9521036,16.8384587 L15.4407129,29.8697371 C15.510348,30.3428986 15.6633922,30.6349578 15.8024073,30.7739729 C15.9276484,30.912988 16.0110574,30.912988 16.0528895,30.912988 L16.2755687,30.7877469 C16.4008099,30.6765348 16.553854,30.4120235 16.6372631,29.9806941 L17.472629,24.7653483 C17.6256732,24.0141566 17.9317614,23.3739219 18.3908939,22.9010155 C18.8359973,22.427854 19.4622029,22.1357948 20.1021825,22.1357948 C20.7839941,22.1357948 21.4377477,22.4559121 21.8968801,22.9706506 C22.3700416,23.4853891 22.6621008,24.1672007 22.787342,24.9742535 C22.842948,25.3777799 22.9959922,25.6838682 23.1352623,25.8506863 C23.2883065,26.0175044 23.3717155,26.0315335 23.3995185,26.0315335 Z" id="Shape" fill="#FF2353" fill-rule="nonzero" mask="url(#mask-2)"></path>
            <path d="M43.3995185,26.0315335 L112,26.0315335 L112,28.1185454 L43.3995185,28.1185454 C42.6342978,28.1185454 41.9802892,27.7150191 41.5489598,27.2002806 C41.1038564,26.6715131 40.8255711,26.0177595 40.728133,25.2803418 C40.644724,24.8071803 40.4916798,24.5151211 40.3664387,24.376106 C40.2274236,24.2370909 40.1577885,24.2370909 40.1021825,24.2230618 L39.8795032,24.348303 C39.7682912,24.4735441 39.601218,24.7240263 39.5178089,25.1691297 L38.6829531,30.3844756 C38.529909,31.1356673 38.2378497,31.7759019 37.7787173,32.2488083 C37.3195849,32.7217147 36.6933792,33 36.0533997,33 C35.371588,33 34.7178344,32.6798827 34.258702,32.1791732 C33.7855405,31.6644348 33.4934813,30.9826231 33.3682402,30.1755703 L31.8934048,17.1442919 C31.8237697,16.6573565 31.6569516,16.3790712 31.5317104,16.2400561 C31.3926953,16.101041 31.3230602,16.087012 31.2812282,16.087012 C31.2256221,16.087012 31.1559871,16.101041 31.0307459,16.2400561 C30.9055048,16.3790712 30.7386867,16.6573565 30.6690516,17.1442919 L29.7648158,25.2800867 C29.6536037,26.0175044 29.3753184,26.6715131 28.943989,27.2000255 C28.4988856,27.714764 27.844877,28.1182904 27.0796563,28.1182904 L24,28.1182904 L24,26.0315335 L27.0794012,26.0315335 C27.1072042,26.0315335 27.1906133,26.0175044 27.3436574,25.8506863 C27.4826725,25.6836131 27.6357167,25.3775248 27.6915778,24.9742535 L28.6098427,16.8384587 C28.7210547,16.0314059 29.027143,15.3358203 29.4862754,14.8348558 C29.9454079,14.3201173 30.5994165,14 31.2809731,14 C31.9627848,14 32.6165383,14.3201173 33.0756708,14.8348558 C33.5348032,15.3358203 33.8408915,16.0314059 33.9521036,16.8384587 L35.4407129,29.8697371 C35.510348,30.3428986 35.6633922,30.6349578 35.8024073,30.7739729 C35.9276484,30.912988 36.0110574,30.912988 36.0528895,30.912988 L36.2755687,30.7877469 C36.4008099,30.6765348 36.553854,30.4120235 36.6372631,29.9806941 L37.472629,24.7653483 C37.6256732,24.0141566 37.9317614,23.3739219 38.3908939,22.9010155 C38.8359973,22.427854 39.4622029,22.1357948 40.1021825,22.1357948 C40.7839941,22.1357948 41.4377477,22.4559121 41.8968801,22.9706506 C42.3700416,23.4853891 42.6621008,24.1672007 42.787342,24.9742535 C42.842948,25.3777799 42.9959922,25.6838682 43.1352623,25.8506863 C43.2883065,26.0175044 43.3717155,26.0315335 43.3995185,26.0315335 Z" id="Shape-Copy" fill="#FF2353" fill-rule="nonzero" mask="url(#mask-2)"></path>
        </g>
    </g>
</svg>