<?xml version="1.0" encoding="UTF-8"?>
<svg width="48px" height="48px" viewBox="0 0 48 48" version="1.1" xmlns="http://www.w3.org/2000/svg" xmlns:xlink="http://www.w3.org/1999/xlink">
    <!-- Generator: Sketch 48.2 (47327) - http://www.bohemiancoding.com/sketch -->
    <title>icon-call</title>
    <desc>Created with Sketch.</desc>
    <defs></defs>
    <g id="iPhone-8-Copy-8" stroke="none" stroke-width="1" fill="none" fill-rule="evenodd" transform="translate(-19.000000, -261.000000)">
        <g id="icon-call" transform="translate(19.000000, 261.000000)">
            <circle id="Oval-Copy-3" fill="#5852FE" cx="24" cy="24" r="24"></circle>
            <path d="M34.228046,29.8235165 L29.8660747,27.9373626 C29.7043167,27.8676923 29.5335477,27.8320879 29.3586029,27.8320879 C28.8476147,27.8320879 28.386077,28.1349451 28.1827806,28.6043956 L28.0430006,28.9279121 C26.1882782,28.3303297 24.457072,27.3151648 23.0199314,25.98 C21.6847686,24.5430769 20.6696054,22.8118681 20.0720239,20.9569231 L20.3957596,20.8169231 C21.0432312,20.5369231 21.3425714,19.781978 21.0625718,19.1338462 L19.1762011,14.7718681 C18.9733443,14.3028571 18.5120263,14 18.0008183,14 C17.8258735,14 17.6551045,14.0353846 17.4933465,14.1052747 L15.7487338,14.8595604 C15.2135698,15.0912088 14.9260978,15.667033 15.0164273,16.3265934 C15.766536,21.7967033 17.3605995,25.589011 20.0333426,28.2617582 L20.7386163,28.9668132 C23.4109198,31.6393407 27.2034414,33.2334066 32.6737627,33.983956 C32.7522241,33.9947253 32.8315646,34 32.9091469,34 C32.9093667,34 32.9091469,34 32.9093667,34 C33.4768383,34 33.9372772,33.7202198 34.1405736,33.2514286 L34.8950779,31.5065934 C35.1748577,30.8584615 34.8757373,30.1035165 34.228046,29.8235165 Z" id="Shape" fill="#FFFFFF" fill-rule="nonzero"></path>
        </g>
    </g>
</svg>