<?xml version="1.0" encoding="UTF-8"?>
<svg width="48px" height="48px" viewBox="0 0 48 48" version="1.1" xmlns="http://www.w3.org/2000/svg" xmlns:xlink="http://www.w3.org/1999/xlink">
    <!-- Generator: Sketch 48.2 (47327) - http://www.bohemiancoding.com/sketch -->
    <title>icon-good-heartrate</title>
    <desc>Created with Sketch.</desc>
    <defs>
        <circle id="path-1" cx="24" cy="24" r="24"></circle>
    </defs>
    <g id="iPhone-8-Copy-8" stroke="none" stroke-width="1" fill="none" fill-rule="evenodd" transform="translate(-19.000000, -327.000000)">
        <g id="icon-good-heartrate" transform="translate(19.000000, 327.000000)">
            <mask id="mask-2" fill="white">
                <use xlink:href="#path-1"></use>
            </mask>
            <use id="Oval" fill-opacity="0.200000018" fill="#CCCCCC" xlink:href="#path-1"></use>
            <path d="M32.3995185,25.0315335 L101,25.0315335 L101,27.1185454 L32.3995185,27.1185454 C31.6342978,27.1185454 30.9802892,26.7150191 30.5489598,26.2002806 C30.1038564,25.6715131 29.8255711,25.0177595 29.728133,24.2803418 C29.644724,23.8071803 29.4916798,23.5151211 29.3664387,23.376106 C29.2274236,23.2370909 29.1577885,23.2370909 29.1021825,23.2230618 L28.8795032,23.348303 C28.7682912,23.4735441 28.601218,23.7240263 28.5178089,24.1691297 L27.6829531,28.3844756 C27.529909,29.1356673 27.2378497,29.7759019 26.7787173,30.2488083 C26.3195849,30.7217147 25.6933792,31 25.0533997,31 C24.371588,31 23.7178344,30.6798827 23.258702,30.1791732 C22.7855405,29.6644348 22.4934813,28.9826231 22.3682402,28.1755703 L20.8934048,18.1442919 C20.8237697,17.6573565 20.6569516,17.3790712 20.5317104,17.2400561 C20.3926953,17.101041 20.3230602,17.087012 20.2812282,17.087012 C20.2256221,17.087012 20.1559871,17.101041 20.0307459,17.2400561 C19.9055048,17.3790712 19.7386867,17.6573565 19.6690516,18.1442919 L18.7648158,24.2800867 C18.6536037,25.0175044 18.3753184,25.6715131 17.943989,26.2000255 C17.4988856,26.714764 16.844877,27.1182904 16.0796563,27.1182904 L-49,27.1182904 L-49,25.0315335 L16.0794012,25.0315335 C16.1072042,25.0315335 16.1906133,25.0175044 16.3436574,24.8506863 C16.4826725,24.6836131 16.6357167,24.3775248 16.6915778,23.9742535 L17.6098427,17.8384587 C17.7210547,17.0314059 18.027143,16.3358203 18.4862754,15.8348558 C18.9454079,15.3201173 19.5994165,15 20.2809731,15 C20.9627848,15 21.6165383,15.3201173 22.0756708,15.8348558 C22.5348032,16.3358203 22.8408915,17.0314059 22.9521036,17.8384587 L24.4407129,27.8697371 C24.510348,28.3428986 24.6633922,28.6349578 24.8024073,28.7739729 C24.9276484,28.912988 25.0110574,28.912988 25.0528895,28.912988 L25.2755687,28.7877469 C25.4008099,28.6765348 25.553854,28.4120235 25.6372631,27.9806941 L26.472629,23.7653483 C26.6256732,23.0141566 26.9317614,22.3739219 27.3908939,21.9010155 C27.8359973,21.427854 28.4622029,21.1357948 29.1021825,21.1357948 C29.7839941,21.1357948 30.4377477,21.4559121 30.8968801,21.9706506 C31.3700416,22.4853891 31.6621008,23.1672007 31.787342,23.9742535 C31.842948,24.3777799 31.9959922,24.6838682 32.1352623,24.8506863 C32.2883065,25.0175044 32.3717155,25.0315335 32.3995185,25.0315335 Z" id="Shape" fill="#5852FE" fill-rule="nonzero" mask="url(#mask-2)"></path>
        </g>
    </g>
</svg>