<?xml version="1.0" encoding="UTF-8"?>
<svg width="48px" height="48px" viewBox="0 0 48 48" version="1.1" xmlns="http://www.w3.org/2000/svg" xmlns:xlink="http://www.w3.org/1999/xlink">
    <!-- Generator: Sketch 48.2 (47327) - http://www.bohemiancoding.com/sketch -->
    <title>icon-assistance-requested</title>
    <desc>Created with Sketch.</desc>
    <defs>
        <circle id="path-1" cx="24" cy="24" r="24"></circle>
    </defs>
    <g id="iPhone-8-Copy-8" stroke="none" stroke-width="1" fill="none" fill-rule="evenodd" transform="translate(-19.000000, -195.000000)">
        <g id="icon-assistance-requested" transform="translate(19.000000, 195.000000)">
            <g id="Group">
                <mask id="mask-2" fill="white">
                    <use xlink:href="#path-1"></use>
                </mask>
                <use id="Oval-Copy-4" fill="#FC8319" xlink:href="#path-1"></use>
            </g>
            <g id="Group-3" transform="translate(12.000000, 12.000000)" fill="#FFFFFF" fill-rule="nonzero">
                <path d="M12.1197303,5.5968 C13.4766742,5.5968 14.7378876,6.012 15.7795955,6.72053333 L19.632809,2.91013333 C17.5181124,1.1944 14.8915955,0.261333333 12.1197303,0.261333333 C9.27208989,0.261333333 6.57842697,1.24666667 4.43460674,3.05333333 L8.27514607,6.85093333 C9.35110112,6.0632 10.6813483,5.5968 12.1197303,5.5968 Z" id="Shape"></path>
                <path d="M5.64458427,12.0002667 C5.64458427,10.5157333 6.15802247,9.148 7.01851685,8.0608 L3.18606742,4.27093333 C1.28683146,6.4112 0.249168539,9.12666667 0.249168539,12.0002667 C0.249168539,14.9704 1.35775281,17.7712 3.37995506,19.9429333 L7.20323596,16.1618667 C6.23217978,15.0418667 5.64458427,13.588 5.64458427,12.0002667 Z" id="Shape"></path>
                <path d="M12.1197303,18.4034667 C10.7865169,18.4034667 9.54633708,18.0026667 8.51514607,17.3173333 L4.65842697,21.1306667 C6.76422472,22.8202667 9.37051685,23.7386667 12.1197303,23.7386667 C14.7926292,23.7386667 17.3309663,22.8706667 19.4052135,21.2701333 L15.5320449,17.44 C14.540764,18.0501333 13.371236,18.4034667 12.1197303,18.4034667 Z" id="Shape"></path>
                <path d="M20.9045393,4.10506667 L17.0793708,7.888 C18.024809,9.00133333 18.5951461,10.436 18.5951461,12.0002667 C18.5951461,13.6674667 17.9474157,15.1874667 16.8876404,16.3282667 L20.7066067,20.1048 C22.8261573,17.9114667 23.9905618,15.044 23.9905618,12 C23.9905618,9.052 22.8986966,6.27013333 20.9045393,4.10506667 Z" id="Shape"></path>
            </g>
        </g>
    </g>
</svg>